Coordinates
version=1
nRows=22
nColumns=24
inDegrees=yes

Units are S.I. units (second, meters, Newtons, ...)
Angles are in degrees.

endheader
time	pelvis_tilt	pelvis_list	pelvis_rotation	pelvis_tx	pelvis_ty	pelvis_tz	hip_flexion_r	hip_adduction_r	hip_rotation_r	knee_angle_r	ankle_angle_r	subtalar_angle_r	mtp_angle_r	hip_flexion_l	hip_adduction_l	hip_rotation_l	knee_angle_l	ankle_angle_l	subtalar_angle_l	mtp_angle_l	lumbar_extension	lumbar_bending	lumbar_rotation
      4.05500000	    -13.08842479	     11.28915391	     -2.82729571	     -0.76436596	     -0.04739686	      0.48317754	     12.42699112	    -12.49789376	      2.71660688	    -54.70389957	    -10.68330291	      3.72747184	     17.59856601	     34.71192740	     14.59988553	      3.68264782	    -26.19235345	     -3.80113854	     -7.60442619	     -3.81372203	      9.84270984	    -12.96043111	     14.26759582
      4.06000000	    -13.15588176	     11.33201429	     -2.75568671	     -0.75704453	     -0.04620585	      0.48275733	     13.67524187	    -12.62593700	      2.66608545	    -55.90454666	    -10.34744715	      2.84051450	     17.01470630	     34.11599600	     14.73859138	      3.79559694	    -25.88131816	     -3.38524924	     -7.42981844	     -3.61849523	      9.82528065	    -12.97291032	     14.05411898
      4.06500000	    -13.12007178	     11.39202560	     -2.66239964	     -0.74959626	     -0.04483468	      0.48228952	     14.75414826	    -12.80376497	      2.57342687	    -56.92548878	     -9.94515390	      2.20456050	     16.99704194	     33.36101845	     14.92365229	      3.92042943	    -25.49455610	     -3.02946247	     -7.35060803	     -3.48645415	      9.71015876	    -13.01290017	     13.75089885
      4.07000000	    -13.12636616	     11.38173452	     -2.57853622	     -0.74223327	     -0.04344591	      0.48187740	     15.88152730	    -12.88149467	      2.47957595	    -57.85741350	     -9.58537249	      1.60600869	     16.94989809	     32.64440182	     15.02246859	      4.08423818	    -25.10881941	     -2.67258030	     -7.24088964	     -3.33882629	      9.63193597	    -12.97544220	     13.47212875
      4.07500000	    -13.23052838	     11.25705517	     -2.46775896	     -0.73501919	     -0.04212580	      0.48146384	     17.10256091	    -12.81014049	      2.36923299	    -58.70827900	     -9.19557317	      1.12768532	     16.82353966	     32.04859641	     15.00037091	      4.27714502	    -24.76741953	     -2.29954281	     -7.06892122	     -3.14141039	      9.63033880	    -12.81598609	     13.13129539
      4.08000000	    -13.18656324	     11.19666298	     -2.40259012	     -0.72768331	     -0.04060030	      0.48108236	     18.14022989	    -12.81707877	      2.28897710	    -59.42332845	     -8.76552516	      0.85430351	     16.95172821	     31.23753208	     15.04738796	      4.52076476	    -24.32364466	     -2.00460424	     -7.02171716	     -3.06498465	      9.50157367	    -12.71885971	     12.86580259
      4.08500000	    -13.19982597	     11.09339964	     -2.24092922	     -0.72032271	     -0.03917248	      0.48057555	     19.19870519	    -12.81754353	      2.07515843	    -60.05313372	     -8.34322278	      0.68090821	     17.13090029	     30.48277051	     15.09196804	      4.83408186	    -23.90312453	     -1.67254220	     -6.94939651	     -2.97497427	      9.42200078	    -12.59828865	     12.49722836
      4.09000000	    -13.23370248	     10.90446742	     -2.04893948	     -0.71307629	     -0.03773286	      0.48000616	     20.24309968	    -12.71781753	      1.84320147	    -60.57091939	     -7.89604542	      0.60015989	     17.40241553	     29.75461991	     15.06671919	      5.22507068	    -23.50698839	     -1.38030895	     -6.91584046	     -2.95089560	      9.33562215	    -12.38303836	     12.04630382
      4.09500000	    -13.23938658	     10.71334224	     -1.86654733	     -0.70577692	     -0.03624924	      0.47944699	     21.23889002	    -12.61522543	      1.60641130	    -60.98850557	     -7.49700299	      0.55892247	     17.71532519	     28.97076631	     15.03418701	      5.64695226	    -23.07210346	     -1.09818109	     -6.91269978	     -2.97778471	      9.23614178	    -12.16464469	     11.62088134
      4.10000000	    -13.22630318	     10.49149959	     -1.66390462	     -0.69849034	     -0.03473213	      0.47884277	     22.18456845	    -12.48600035	      1.34247509	    -61.30259431	     -7.13329701	      0.55967478	     18.07433737	     28.15472855	     14.97914967	      6.10771840	    -22.62375412	     -0.83143947	     -6.93120869	     -3.05927321	      9.11338291	    -11.91659701	     11.15852728
      4.10500000	    -13.15160149	     10.27316303	     -1.45969824	     -0.69118152	     -0.03314934	      0.47821945	     23.03747236	    -12.36872081	      1.05803411	    -61.50017069	     -6.86988836	      0.47594366	     18.67795230	     27.25236388	     14.93241612	      6.61612157	    -22.15135182	     -0.55075630	     -6.96233630	     -3.31898188	      8.92812981	    -11.67298870	     10.69488226
      4.11000000	    -13.14097028	      9.99469638	     -1.24486765	     -0.68392439	     -0.03165518	      0.47762492	     23.94310989	    -12.16584936	      0.78266899	    -61.64403119	     -6.51381876	      0.55649055	     18.91575292	     26.43024832	     14.79954579	      7.07688995	    -21.68107694	     -0.29684831	     -6.95058011	     -3.35582169	      8.81212400	    -11.36483975	     10.22915245
      4.11500000	    -13.09314239	      9.71726047	     -0.99412137	     -0.67665751	     -0.03014277	      0.47697417	     24.77748298	    -11.98547510	      0.45796837	    -61.69648442	     -6.20577899	      0.59077521	     19.15597522	     25.55087784	     14.68027117	      7.59303298	    -21.18365050	     -0.07257795	     -6.96023147	     -3.43765313	      8.65196386	    -11.06697736	      9.70972049
      4.12000000	    -13.02508565	      9.43115375	     -0.74405612	     -0.66939004	     -0.02863462	      0.47634324	     25.56934528	    -11.78986391	      0.13687654	    -61.66227475	     -5.92746388	      0.61044333	     19.36953829	     24.64116491	     14.53805216	      8.09725336	    -20.66062036	      0.14019238	     -6.96217460	     -3.51810794	      8.47666417	    -10.76075423	      9.19925233
      4.12500000	    -12.90975525	      9.15463782	     -0.48669370	     -0.66215838	     -0.02712852	      0.47573857	     26.29471555	    -11.60411422	     -0.18570487	    -61.55103372	     -5.69621204	      0.58368891	     19.57830821	     23.67356663	     14.39639375	      8.60939399	    -20.11374962	      0.34641851	     -6.95475150	     -3.60643107	      8.24619986	    -10.47410271	      8.65760083
      4.13000000	    -12.82939667	      8.85399911	     -0.22695648	     -0.65489504	     -0.02570004	      0.47513779	     27.03124013	    -11.38458631	     -0.50094752	    -61.35747838	     -5.45183736	      0.57315895	     19.70740445	     22.74246803	     14.21212636	      9.08020673	    -19.55137298	      0.53876406	     -6.93578258	     -3.64598025	      8.06838870	    -10.15448506	      8.14823007
      4.13500000	    -12.75378970	      8.54999475	      0.03281404	     -0.64761751	     -0.02432151	      0.47459115	     27.75084503	    -11.15416382	     -0.81075439	    -61.08317545	     -5.22551554	      0.54859328	     19.77196611	     21.81178831	     14.00704298	      9.53486800	    -18.96721219	      0.70898430	     -6.91722463	     -3.66564729	      7.90696211	     -9.83857356	      7.65882670
      4.14000000	    -12.63652592	      8.26256092	      0.29423790	     -0.64039691	     -0.02300513	      0.47407716	     28.41611497	    -10.93814929	     -1.11046181	    -60.75013848	     -5.01089862	      0.46891941	     19.78511127	     20.84006283	     13.81024821	     10.00389630	    -18.37558207	      0.87413064	     -6.91980491	     -3.67178466	      7.69256268	     -9.54637791	      7.12512553
      4.14500000	    -12.55664101	      7.96214373	      0.53825660	     -0.63310720	     -0.02176368	      0.47359278	     29.09757927	    -10.69745829	     -1.38926250	    -60.33293787	     -4.80681943	      0.40776017	     19.74663616	     19.90659457	     13.57986834	     10.43603989	    -17.76964183	      1.01037655	     -6.93509778	     -3.68282258	      7.54447227	     -9.23081481	      6.67203085
      4.15000000	    -12.42645473	      7.68424419	      0.78522327	     -0.62588041	     -0.02058978	      0.47315870	     29.71360412	    -10.47844377	     -1.66202081	    -59.86122733	     -4.59754756	      0.28839299	     19.63140561	     18.92442335	     13.36673860	     10.90866375	    -17.16371590	      1.14209442	     -6.99738722	     -3.69674184	      7.33198785	     -8.95038647	      6.16830875
      4.15500000	    -12.36441549	      7.38347340	      1.00679352	     -0.61860656	     -0.01953770	      0.47275256	     30.38231662	    -10.21872475	     -1.90127556	    -59.30923813	     -4.38419319	      0.20265569	     19.48624432	     18.03083447	     13.11225414	     11.32590740	    -16.57252193	      1.25020923	     -7.08641314	     -3.74608889	      7.21623409	     -8.63493877	      5.74394152
      4.16000000	    -12.27682531	      7.09874126	      1.21780144	     -0.61137811	     -0.01858018	      0.47239665	     31.01441634	     -9.96953233	     -2.12534543	    -58.70404250	     -4.15878969	      0.08084128	     19.26361042	     17.11895558	     12.86731096	     11.79528915	    -15.99474705	      1.36958556	     -7.23687292	     -3.83203574	      7.06954933	     -8.34302350	      5.29859115
